<?xml version="1.0" standalone="no"?>
<!DOCTYPE svg PUBLIC "-//W3C//DTD SVG 20010904//EN"
 "http://www.w3.org/TR/2001/REC-SVG-20010904/DTD/svg10.dtd">
<svg version="1.0" xmlns="http://www.w3.org/2000/svg"
 width="688.000000pt" height="688.000000pt" viewBox="0 0 688.000000 688.000000"
 preserveAspectRatio="xMidYMid meet">
<metadata>
Created by potrace 1.11, written by Peter Selinger 2001-2013
</metadata>
<g transform="translate(0.000000,688.000000) scale(0.100000,-0.100000)"
fill="#000000" stroke="none">
<path d="M3350 6306 c-14 -6 -30 -15 -36 -21 -8 -8 -12 -107 -12 -323 l-2
-312 27 -17 c55 -36 170 -31 206 9 15 18 17 49 17 320 0 184 -4 307 -10 318
-19 35 -133 51 -190 26z"/>
<path d="M2471 6259 c-52 -23 -72 -52 -60 -91 5 -17 11 -47 14 -67 3 -20 8
-47 10 -59 12 -52 15 -70 25 -117 5 -27 12 -62 14 -78 3 -15 7 -35 10 -45 3
-9 8 -31 10 -47 3 -17 8 -50 12 -75 9 -58 30 -100 52 -101 73 -7 107 -4 140
11 53 24 72 53 62 93 -5 18 -11 46 -14 62 -5 33 -4 26 -47 245 -16 85 -32 170
-35 189 -9 52 -21 79 -43 90 -29 16 -105 11 -150 -10z"/>
<path d="M4314 6268 c-15 -7 -34 -48 -73 -166 -29 -86 -63 -184 -76 -217 -12
-33 -23 -62 -23 -65 -1 -7 -8 -28 -30 -90 -23 -66 -17 -86 38 -118 82 -47 172
-46 185 2 4 12 10 30 15 41 5 11 23 63 40 115 17 52 34 102 37 110 4 8 7 17 8
20 6 25 69 210 76 225 16 34 17 59 2 82 -30 46 -150 83 -199 61z"/>
<path d="M3288 5204 c-3 -2 -32 -7 -64 -9 -66 -6 -73 -7 -130 -23 -53 -15
-157 -83 -207 -135 -82 -85 -156 -223 -213 -395 -37 -111 -50 -138 -76 -162
-46 -42 -65 -52 -128 -73 -38 -12 -70 -27 -70 -34 0 -6 -8 -10 -17 -9 -10 2
-36 -1 -58 -6 -22 -5 -51 -11 -65 -13 -24 -3 -82 -13 -125 -22 -11 -2 -54 -10
-95 -18 -102 -20 -104 -21 -195 -40 -213 -45 -363 -76 -390 -81 -16 -2 -46 -9
-65 -14 -19 -5 -55 -12 -80 -15 -25 -4 -49 -8 -55 -9 -48 -12 -91 -17 -155
-20 -121 -6 -241 -44 -259 -82 -13 -30 7 -65 50 -86 l36 -17 2 -118 c2 -65 4
-138 6 -163 3 -61 -2 -71 -34 -65 -14 3 -42 8 -61 11 -19 3 -46 7 -60 9 -14 3
-43 7 -65 10 -22 4 -48 8 -57 11 -18 5 -49 12 -88 20 -14 3 -32 7 -40 9 -16 5
-74 16 -105 20 -11 2 -22 4 -25 5 -3 1 -9 3 -15 4 -5 1 -41 7 -80 14 -155 27
-219 17 -274 -44 -27 -29 -30 -38 -28 -96 2 -54 7 -71 31 -102 15 -21 40 -42
55 -48 14 -6 35 -14 46 -19 11 -5 60 -15 110 -24 98 -16 99 -16 200 -39 39 -9
81 -19 95 -22 14 -2 39 -9 56 -15 35 -11 64 -18 109 -25 39 -7 94 -21 175 -44
l66 -20 1 -217 c2 -243 7 -348 28 -513 11 -84 12 -92 18 -135 4 -22 9 -56 12
-75 2 -19 12 -73 20 -120 9 -47 18 -101 21 -120 4 -33 69 -349 78 -380 2 -8
11 -42 20 -75 19 -75 64 -205 105 -310 32 -78 118 -260 133 -280 4 -5 40 -59
80 -120 82 -124 96 -134 231 -167 45 -11 91 -22 102 -25 22 -5 143 -30 190
-39 34 -7 51 -9 120 -19 28 -3 64 -9 80 -11 76 -13 337 -30 571 -38 33 -2 64
-5 70 -8 17 -10 894 -6 894 4 0 5 5 6 12 2 7 -5 26 -7 43 -6 16 0 109 4 205 7
271 8 466 19 560 30 19 3 55 7 80 10 106 12 145 17 151 20 3 2 27 6 53 10 98
11 350 69 451 103 28 9 54 16 59 17 5 0 36 41 70 91 85 127 84 125 103 164 10
19 22 42 29 50 36 48 195 471 210 560 3 14 9 39 14 55 5 17 11 41 14 55 3 14
7 36 10 50 3 14 8 36 11 50 8 37 13 63 19 106 4 22 8 46 11 54 2 8 6 31 9 50
3 19 8 46 11 60 3 14 7 40 10 57 2 18 7 50 11 70 12 66 12 70 19 120 4 26 9
59 11 73 2 14 7 50 10 80 4 30 8 71 11 90 2 19 6 159 9 310 3 151 7 284 9 296
3 15 17 24 52 32 66 17 78 20 81 22 3 3 12 5 62 14 25 4 77 16 115 26 39 10
81 21 95 24 14 3 66 15 115 27 108 25 107 25 170 33 75 10 156 35 188 58 45
32 68 89 63 156 -4 51 -9 61 -42 90 -33 29 -53 37 -76 33 -5 0 -8 2 -8 7 0 4
-24 6 -52 5 -47 -2 -87 -7 -193 -27 -61 -12 -165 -33 -205 -42 -108 -25 -136
-30 -193 -38 -27 -4 -58 -9 -70 -12 -12 -2 -37 -6 -57 -9 l-36 -5 2 72 c1 40
3 119 4 176 l2 103 31 13 c85 35 80 104 -10 143 -29 12 -74 17 -184 19 -95 1
-155 7 -170 15 -13 7 -25 11 -27 10 -1 -2 -33 6 -70 18 -65 19 -319 84 -374
96 -16 3 -38 7 -50 10 -102 22 -168 35 -203 40 -16 3 -41 7 -55 10 -14 3 -41
8 -60 11 -19 3 -45 7 -56 9 -12 2 -48 7 -80 10 -33 4 -68 9 -79 11 -21 4 -76
11 -137 18 -21 3 -42 7 -48 11 -6 3 -22 9 -37 11 -46 9 -133 57 -162 89 -17
20 -44 80 -70 156 -23 68 -56 151 -73 184 -17 33 -36 70 -42 82 -6 13 -14 23
-18 23 -5 0 -8 6 -8 14 0 8 -33 49 -73 90 -56 58 -90 83 -148 110 -40 19 -90
38 -109 41 -80 14 -216 20 -280 12 -14 -2 -35 0 -46 4 -12 4 -24 6 -26 3z
m169 -209 c79 -5 119 -12 145 -26 10 -5 18 -7 18 -4 0 3 22 -6 48 -19 69 -35
121 -98 171 -206 106 -233 121 -257 186 -306 21 -15 15 -15 -190 2 -298 25
-800 24 -970 -1 -16 -2 -52 -7 -80 -10 l-50 -6 26 18 c37 26 76 70 91 104 7
16 16 29 20 29 3 0 9 13 13 30 4 16 11 32 16 35 5 4 9 14 9 23 1 24 79 173
114 216 57 70 165 113 298 120 21 1 41 5 44 9 4 3 11 4 15 1 5 -3 39 -7 76 -9z"/>
</g>
</svg>
