<svg id="Group_4349" data-name="Group 4349" xmlns="http://www.w3.org/2000/svg" width="611" height="800" viewBox="0 0 611 800">
  <path id="Path_1745" data-name="Path 1745" d="M0,0H611V800H0Z" fill="#0e1d3b"/>
  <g id="Group_1922" data-name="Group 1922" transform="translate(106 168.079)">
    <g id="Group_164" data-name="Group 164" transform="translate(100 155.921)">
      <g id="Group_1" data-name="Group 1" transform="translate(0.312)">
        <path id="Path_1" data-name="Path 1" d="M80.825,214.809a67.353,67.353,0,0,0-.706-11.533c3.138.157,5.1.235,11.611.235h16.4c9.65,0,17.417,2.668,22.673,7.767,5.727,5.649,8.63,13.886,8.63,24.32,0,10.749-3.138,19.379-9.1,25.341-5.256,5.178-12.709,7.845-22.045,7.845H91.73c-6.041,0-8.238.079-11.533.235a74.859,74.859,0,0,0,.627-11.454Zm26.047,40.246c5.1,0,8.708-1.333,11.533-4.157,3.217-3.3,4.942-8.551,4.942-15.063,0-6.668-1.49-11.532-4.55-14.592-2.746-2.746-6.511-4-12.16-4H96.359v37.814Z" transform="translate(-80.119 -202.962)" fill="#fff"/>
        <path id="Path_2" data-name="Path 2" d="M226.714,269.192a100.755,100.755,0,0,0-12.945-.549H189.057c-5.963,0-8.16.079-11.533.235a72.274,72.274,0,0,0,.628-11.454V214.588a83.134,83.134,0,0,0-.628-11.454c3.216.156,5.414.235,11.533.235h25.026a96.168,96.168,0,0,0,11.689-.549v14.671a96.461,96.461,0,0,0-11.689-.549h-20.4v11.533h16.945a93.98,93.98,0,0,0,11.768-.549v14.514a96.872,96.872,0,0,0-11.768-.549H193.685v13.18h20.241a106.362,106.362,0,0,0,12.788-.549Z" transform="translate(-110.356 -202.82)" fill="#fff"/>
        <path id="Path_3" data-name="Path 3" d="M272.089,268.89c-5.414,0-8.63.079-11.611.235a70.418,70.418,0,0,0,.627-11.454V216.248a95.028,95.028,0,0,0-.627-12.631h17.1a77.822,77.822,0,0,0-.627,12.4v38.913h18.985a92.384,92.384,0,0,0,13.023-.549V269.44a102.17,102.17,0,0,0-13.023-.549Z" transform="translate(-136.102 -203.068)" fill="#fff"/>
        <path id="Path_4" data-name="Path 4" d="M355.8,203.617a72.636,72.636,0,0,0-.627,11.611v42.051a75.819,75.819,0,0,0,.627,11.611h-17.26a75.175,75.175,0,0,0,.627-11.611V215.228a73.26,73.26,0,0,0-.627-11.611Z" transform="translate(-160.344 -203.068)" fill="#fff"/>
      </g>
      <g id="Group_2" data-name="Group 2" transform="translate(0 71.79)">
        <path id="Path_5" data-name="Path 5" d="M107.734,348.041c.558,1.857.558,1.857,1.324,4.745.836-3.025.975-3.438,1.323-4.745l10.1-33.077a37.728,37.728,0,0,0,1.6-7.427h16.366c-.975,2.063-1.6,3.644-3.343,8.39l-14.765,41.4a59.631,59.631,0,0,0-2.228,7.427H100a53.375,53.375,0,0,0-2.229-7.427l-14.834-41.4c-1.393-3.988-2.09-5.708-3.274-8.39h16.3a48.253,48.253,0,0,0,1.671,7.427Z" transform="translate(-79.667 -306.299)" fill="#fff"/>
        <path id="Path_6" data-name="Path 6" d="M225.569,335.312c0,18.155-11.213,30.188-28.137,30.188-17.063,0-28.067-11.759-28.067-29.982,0-18.155,11-29.776,28.137-29.776S225.569,317.294,225.569,335.312Zm-14.486.137c0-11.14-5.154-17.879-13.581-17.879-8.5,0-13.72,6.808-13.72,17.879,0,11.209,5.223,18.155,13.72,18.155C205.929,353.6,211.082,346.727,211.082,335.449Z" transform="translate(-107.511 -305.742)" fill="#fff"/>
        <path id="Path_7" data-name="Path 7" d="M302.3,364.751a61.811,61.811,0,0,0-1.462-7.358l-5.293-20.218c-.7-2.682-1.253-5.845-1.95-10.384-.418,2.819-1.253,7.152-2.09,10.384l-5.154,20.286a50.487,50.487,0,0,0-1.532,7.289H270.957c-.348-1.994-.7-3.438-1.742-7.427l-11.143-41.26c-.975-3.507-1.95-6.67-2.646-8.527H271.3a45.011,45.011,0,0,0,.975,7.565l4.457,20.9c.209,1.032.7,4.264,1.533,9.7,1.045-5.776,1.532-8.252,1.95-9.7l5.572-21.318a58.529,58.529,0,0,0,1.533-7.152h12.4a57.683,57.683,0,0,0,1.6,6.946l5.641,21.181c.557,2.2,1.044,4.47,1.95,10.04.14-1.306.14-1.306.557-4.195.209-1.513.7-4.814.976-5.914l4.387-20.493a37.37,37.37,0,0,0,1.044-7.565h15.811c-.7,1.857-1.672,5.089-2.577,8.527l-11.143,41.191a59.856,59.856,0,0,0-1.742,7.5Z" transform="translate(-134.222 -306.299)" fill="#fff"/>
      </g>
      <g id="Group_3" data-name="Group 3" transform="translate(139.977 134.347)">
        <path id="Path_8" data-name="Path 8" d="M292.378,405.375a9.148,9.148,0,0,1-1.289,4.62,8.987,8.987,0,0,1-4.8,3.635,8.776,8.776,0,0,0-2.1-2.83c3.223-.931,4.674-2.561,4.835-5.425h-3.671a21.867,21.867,0,0,0-2.7.089v-3.008a15.719,15.719,0,0,0,2.758.143h9.974a17.33,17.33,0,0,0,2.847-.125v2.99a23.9,23.9,0,0,0-2.794-.089ZM291.984,398a23.212,23.212,0,0,0,2.65-.108c-.054-.108-.072-.125-.143-.25l1.451-.466a11.77,11.77,0,0,1,1.308,2.865l-1.541.555a13.59,13.59,0,0,0-1.038-2.65v2.937c-.537-.054-.645-.054-2.632-.09h-4.763a26.329,26.329,0,0,0-2.794.09v-3.026a14.75,14.75,0,0,0,2.847.143Zm6.035,1.809a12.613,12.613,0,0,0-1.253-2.847l1.4-.483a12.079,12.079,0,0,1,1.253,2.776Z" transform="translate(-282.654 -396.475)" fill="#fff"/>
        <path id="Path_9" data-name="Path 9" d="M314.888,398.448a21.55,21.55,0,0,0-.09,2.4v3.563a23.4,23.4,0,0,0,.09,2.561h-3.474a18.546,18.546,0,0,0,.108-2.614v-3.546a17.92,17.92,0,0,0-.108-2.364Zm8.327,0c-.072,1-.09,1.271-.09,2.417v2.1a23.124,23.124,0,0,1-.412,5.211,7.366,7.366,0,0,1-3.724,4.549,15.026,15.026,0,0,1-3.725,1.468,8.181,8.181,0,0,0-1.826-3.062,11.553,11.553,0,0,0,3.546-1.093,4.621,4.621,0,0,0,2.668-3.474,30.358,30.358,0,0,0,.2-3.8V400.9a17.343,17.343,0,0,0-.108-2.454Z" transform="translate(-291.585 -397.088)" fill="#fff"/>
        <path id="Path_10" data-name="Path 10" d="M339.354,404.641c-.054.286-.179.86-.358,1.718a18.142,18.142,0,0,1-2.543,6,14.085,14.085,0,0,0-2.955-1.469,14.882,14.882,0,0,0,2.776-6.966Zm1.092-5.158a13.233,13.233,0,0,0-.107-1.988h3.385c-.054.43-.072,1.021-.09,2.024v.663h3.4a17.019,17.019,0,0,0,2.812-.143v3.045a22.951,22.951,0,0,0-2.758-.09h-3.456v7.9a17.057,17.057,0,0,0,.108,2.651h-3.421a16.606,16.606,0,0,0,.125-2.686v-7.862h-3.331a21.313,21.313,0,0,0-2.7.09v-3.045a16.45,16.45,0,0,0,2.722.143h3.313Zm7.235,4.406a19.218,19.218,0,0,0,2.9,6.841,23.471,23.471,0,0,0-2.955,1.665,25.976,25.976,0,0,1-2.65-6.877,5.341,5.341,0,0,0-.269-.877Zm-.591-6.841a9.547,9.547,0,0,1,1.361,2.508l-1.773.537a10.526,10.526,0,0,0-1.343-2.561Zm2.561-.572a8.962,8.962,0,0,1,1.361,2.488l-1.666.538a12.881,12.881,0,0,0-1.36-2.543Z" transform="translate(-298.443 -396.475)" fill="#fff"/>
        <path id="Path_11" data-name="Path 11" d="M366.648,415.149a3.4,3.4,0,1,1-3.4-3.4A3.4,3.4,0,0,1,366.648,415.149Zm-4.961,0a1.558,1.558,0,1,0,1.558-1.558A1.559,1.559,0,0,0,361.687,415.149Z" transform="translate(-306.625 -401.217)" fill="#fff"/>
      </g>
      <g id="Group_4" data-name="Group 4" transform="translate(0 136.957)">
        <path id="Path_12" data-name="Path 12" d="M86.262,412.211a2.969,2.969,0,0,1,.013-.319,3.6,3.6,0,0,1-2.7,1.041c-2.434,0-3.906-1.764-3.906-4.686a5.115,5.115,0,0,1,1.151-3.529,3.584,3.584,0,0,1,2.715-1.128,3.813,3.813,0,0,1,2.742,1.07c-.013-.217-.013-.347-.013-.549v-1.2a17.406,17.406,0,0,0-.107-2.271H88.9a17.567,17.567,0,0,0-.107,2.271V410.4a18.584,18.584,0,0,0,.107,2.271H86.262Zm-4-3.949a2.721,2.721,0,0,0,.616,1.909,1.781,1.781,0,0,0,1.3.549,2.248,2.248,0,0,0,2.06-2.5,2.177,2.177,0,0,0-2.073-2.415C83,405.8,82.262,406.744,82.262,408.263Z" transform="translate(-79.667 -400.379)" fill="#fff"/>
        <path id="Path_13" data-name="Path 13" d="M97.044,410.362c.134,1.171.763,1.793,1.819,1.793a1.867,1.867,0,0,0,1.351-.535,1.437,1.437,0,0,0,.4-.737l2.328.709a4.235,4.235,0,0,1-.883,1.489,4.16,4.16,0,0,1-3.156,1.229,4.008,4.008,0,0,1-3.1-1.229,5.153,5.153,0,0,1-1.218-3.529c0-2.864,1.7-4.759,4.254-4.759a3.917,3.917,0,0,1,4.013,3.385,11.365,11.365,0,0,1,.2,1.895,2.885,2.885,0,0,0,.013.289Zm3.478-2a1.589,1.589,0,0,0-1.685-1.417,1.639,1.639,0,0,0-1.753,1.417Z" transform="translate(-84.299 -401.669)" fill="#fff"/>
        <path id="Path_14" data-name="Path 14" d="M111.228,400.64a15.983,15.983,0,0,0-.107,2.184v7.665a18.785,18.785,0,0,0,.107,2.184h-2.8a15.713,15.713,0,0,0,.108-2.184v-7.665a14.948,14.948,0,0,0-.108-2.184Z" transform="translate(-88.6 -400.379)" fill="#fff"/>
        <path id="Path_15" data-name="Path 15" d="M117.319,403.851a15.474,15.474,0,0,0-.107,2.184v4.455a21.325,21.325,0,0,0,.107,2.184h-2.8a17.538,17.538,0,0,0,.107-2.184v-4.455a16.823,16.823,0,0,0-.107-2.184Zm-.041-3.211v2.17h-2.715v-2.17Z" transform="translate(-90.491 -400.379)" fill="#fff"/>
        <path id="Path_16" data-name="Path 16" d="M122.709,405.3a6.42,6.42,0,0,0,.254,1.244l1.244,4.5c.014.028.027.087.054.159.04.144.04.159.107.4.04-.13.054-.2.067-.261a.626.626,0,0,0,.04-.144c.027-.072.04-.131.054-.174l1.244-4.484a7.12,7.12,0,0,0,.254-1.244H129c-.268.652-.374.926-.549,1.4l-2.247,6.2a6.515,6.515,0,0,0-.361,1.215h-2.93a6.555,6.555,0,0,0-.361-1.215l-2.248-6.2c-.08-.2-.268-.666-.562-1.4Z" transform="translate(-92.112 -401.826)" fill="#fff"/>
        <path id="Path_17" data-name="Path 17" d="M136.264,410.362c.134,1.171.763,1.793,1.819,1.793a1.867,1.867,0,0,0,1.351-.535,1.433,1.433,0,0,0,.4-.737l2.328.709a4.244,4.244,0,0,1-.882,1.489,4.161,4.161,0,0,1-3.157,1.229,4.009,4.009,0,0,1-3.1-1.229,5.156,5.156,0,0,1-1.217-3.529c0-2.864,1.7-4.759,4.253-4.759a3.917,3.917,0,0,1,4.013,3.385,11.351,11.351,0,0,1,.2,1.895,2.885,2.885,0,0,0,.013.289Zm3.478-2a1.589,1.589,0,0,0-1.686-1.417,1.639,1.639,0,0,0-1.752,1.417Z" transform="translate(-96.479 -401.669)" fill="#fff"/>
        <path id="Path_18" data-name="Path 18" d="M153.671,407.822a4.035,4.035,0,0,0-1.364-.274,1.866,1.866,0,0,0-1.592.781,2.208,2.208,0,0,0-.4,1.286v2.257a17,17,0,0,0,.108,2.169h-2.769a17.535,17.535,0,0,0,.107-2.184V407.4a15.448,15.448,0,0,0-.107-2.184h2.661v1.142a2.949,2.949,0,0,1,2.676-1.315,5.029,5.029,0,0,1,1.324.173Z" transform="translate(-100.779 -401.748)" fill="#fff"/>
        <path id="Path_19" data-name="Path 19" d="M158.385,407.236c-.575-1.446-.628-1.577-.8-1.939h2.9a10.193,10.193,0,0,0,.521,1.866l1.231,3.341,1.191-3.284A9.159,9.159,0,0,0,164,405.3h2.9c-.334.752-.334.752-.8,1.939l-3.063,7.651a2.907,2.907,0,0,1-3.023,1.981,7.459,7.459,0,0,1-1.833-.246l.294-2.3a1.92,1.92,0,0,0,1.043.319,1.127,1.127,0,0,0,1.084-.68l.281-.622Z" transform="translate(-103.864 -401.826)" fill="#fff"/>
        <path id="Path_20" data-name="Path 20" d="M178.705,416.621a20.063,20.063,0,0,0,.108-2.112v-7.058a19.052,19.052,0,0,0-.108-2.271h2.635v.492c0,.087-.013.2-.013.274a3.786,3.786,0,0,1,2.742-1.027,3.739,3.739,0,0,1,2.836,1.114,4.829,4.829,0,0,1,1.07,3.369,5.03,5.03,0,0,1-1.164,3.5,3.687,3.687,0,0,1-2.755,1.142,4.5,4.5,0,0,1-1.806-.376,3.162,3.162,0,0,1-.923-.665c0,.13,0,.318.013.521v1a16.371,16.371,0,0,0,.107,2.1Zm6.073-5.308a2.715,2.715,0,0,0,.589-1.88c0-1.475-.723-2.329-1.98-2.329a2.4,2.4,0,0,0,.081,4.759A1.775,1.775,0,0,0,184.778,411.313Z" transform="translate(-110.423 -401.708)" fill="#fff"/>
        <path id="Path_21" data-name="Path 21" d="M196.494,400.64a16,16,0,0,0-.106,2.184v7.665a18.788,18.788,0,0,0,.106,2.184h-2.8a15.848,15.848,0,0,0,.107-2.184v-7.665a15.075,15.075,0,0,0-.107-2.184Z" transform="translate(-115.079 -400.379)" fill="#fff"/>
        <path id="Path_22" data-name="Path 22" d="M205.027,407.964c0-.694-.387-1.013-1.27-1.013a1.333,1.333,0,0,0-1.512,1.013l-2.555-.448a3.115,3.115,0,0,1,1.124-1.75,4.842,4.842,0,0,1,3.009-.825,5.435,5.435,0,0,1,2.474.506,2.672,2.672,0,0,1,1.231,2.6v3.905a18.1,18.1,0,0,0,.094,2.054h-2.6v-.665a3.69,3.69,0,0,1-2.594.867,3.117,3.117,0,0,1-2.315-.795,2.715,2.715,0,0,1-.736-1.967,2.5,2.5,0,0,1,.976-2.112,5.285,5.285,0,0,1,2.782-.94c.522-.059.924-.072,1.886-.1Zm0,2.184a7.4,7.4,0,0,0-2.314.289,1.05,1.05,0,0,0-.776.955c0,.521.4.825,1.1.825a2.354,2.354,0,0,0,1.511-.55,1.5,1.5,0,0,0,.482-1.113Z" transform="translate(-116.844 -401.715)" fill="#fff"/>
        <path id="Path_23" data-name="Path 23" d="M214.166,403.964a15.843,15.843,0,0,0-.108-1.981h2.73a18.143,18.143,0,0,0-.108,1.981v.3h.482a8.541,8.541,0,0,0,1.311-.072v2.4a8,8,0,0,0-1.231-.087h-.562v3.7c0,.4.067.607.241.737a1.093,1.093,0,0,0,.616.159,1.742,1.742,0,0,0,.936-.26l.2,2.2a5.354,5.354,0,0,1-1.846.29,3.041,3.041,0,0,1-1.966-.507,2.116,2.116,0,0,1-.695-1.895V406.51h-.508a7.475,7.475,0,0,0-1.164.087v-2.416a7.451,7.451,0,0,0,1.19.087h.482Z" transform="translate(-120.916 -400.796)" fill="#fff"/>
        <path id="Path_24" data-name="Path 24" d="M223.3,405.961a8.9,8.9,0,0,0-1.5.1v-2.43a11.1,11.1,0,0,0,1.5.1h.361v-.679c0-1.91,1-2.792,3.184-2.792a6.561,6.561,0,0,1,2.033.3l-.414,2.126a2.454,2.454,0,0,0-1.324-.362c-.656,0-.91.29-.91,1.042v.361h.388a17,17,0,0,0,1.779-.1v2.43a12.316,12.316,0,0,0-1.753-.1h-.415v4.411a16.791,16.791,0,0,0,.108,2.184h-2.783a17.26,17.26,0,0,0,.107-2.184v-4.411Z" transform="translate(-123.807 -400.262)" fill="#fff"/>
        <path id="Path_25" data-name="Path 25" d="M231.084,409.544c0-2.892,1.712-4.729,4.414-4.729s4.414,1.837,4.414,4.7-1.766,4.787-4.427,4.787C232.8,414.3,231.084,412.451,231.084,409.544Zm2.554-.014c0,1.605.7,2.574,1.859,2.574s1.833-.94,1.833-2.545c0-1.62-.683-2.575-1.819-2.575C234.334,406.984,233.638,407.939,233.638,409.53Z" transform="translate(-126.689 -401.676)" fill="#fff"/>
        <path id="Path_26" data-name="Path 26" d="M251.476,407.822a4.041,4.041,0,0,0-1.364-.274,1.866,1.866,0,0,0-1.592.781,2.208,2.208,0,0,0-.4,1.286v2.257a17.137,17.137,0,0,0,.107,2.169h-2.769a17.406,17.406,0,0,0,.107-2.184V407.4a15.346,15.346,0,0,0-.107-2.184h2.662v1.142a2.949,2.949,0,0,1,2.675-1.315,5.034,5.034,0,0,1,1.324.173Z" transform="translate(-131.152 -401.748)" fill="#fff"/>
        <path id="Path_27" data-name="Path 27" d="M256.28,414.009a17.27,17.27,0,0,0,.106-2.184v-4.455a14.592,14.592,0,0,0-.106-2.184h2.648v.607a1.646,1.646,0,0,1-.013.2v.145a3.13,3.13,0,0,1,2.554-1.187,2.7,2.7,0,0,1,1.712.521,1.752,1.752,0,0,1,.548.723,3.53,3.53,0,0,1,2.81-1.258c1.913,0,2.89,1.128,2.89,3.312v3.587a17.291,17.291,0,0,0,.106,2.169h-2.782a16.525,16.525,0,0,0,.108-2.184v-2.979c0-1.084-.294-1.5-1.057-1.5-.683,0-1.3.578-1.632,1.547v2.952a17.731,17.731,0,0,0,.107,2.169H261.5a16.942,16.942,0,0,0,.107-2.184v-2.979a1.794,1.794,0,0,0-.228-1.129.839.839,0,0,0-.736-.361c-.722,0-1.338.564-1.712,1.548v2.921a17.562,17.562,0,0,0,.107,2.184Z" transform="translate(-134.514 -401.715)" fill="#fff"/>
      </g>
    </g>
  </g>
</svg>
